<svg width="26" height="26" fill="none" xmlns="http://www.w3.org/2000/svg"><path fill-rule="evenodd" clip-rule="evenodd" d="m14.397 2.755 7.421 5.21a4.333 4.333 0 0 1 1.842 3.543v7.724a4.625 4.625 0 0 1-4.637 4.615H6.803a4.626 4.626 0 0 1-4.636-4.615v-7.724c0-1.41.687-2.731 1.841-3.542l7.421-5.211a2.167 2.167 0 0 1 2.968 0Zm6.751 18.596a3 3 0 0 0 .887-2.119v-7.724a2.708 2.708 0 0 0-1.148-2.166L13.466 4.13l-.12-.087a.607.607 0 0 0-.866 0l-.12.087-7.42 5.21a2.708 2.708 0 0 0-1.149 2.167v7.724a3 3 0 0 0 3.012 2.99h12.22c.796.003 1.56-.31 2.125-.87Z" fill="#000"/><path d="m19.489 11.93-6.002 4.193a.9.9 0 0 1-1.321-.054l-5.829-4.138a.812.812 0 1 0-.931 1.321l5.741 4.095c.471.439 1.09.682 1.734.683a2.394 2.394 0 0 0 1.614-.683l5.926-4.138a.813.813 0 0 0 .206-1.083.823.823 0 0 0-1.138-.195Z" fill="#000"/></svg>