<svg width="26" height="26" viewBox="0 0 26 26" fill="none" xmlns="http://www.w3.org/2000/svg">
<path fill-rule="evenodd" clip-rule="evenodd" d="M14.3973 2.75484L21.8182 7.96568C22.9719 8.77651 23.6589 10.098 23.6598 11.5082V19.2323C23.657 20.4592 23.1669 21.6346 22.2973 22.5001C21.4278 23.3656 20.25 23.8502 19.0232 23.8473H6.80317C5.57632 23.8502 4.39858 23.3656 3.52904 22.5001C2.65949 21.6346 2.16937 20.4592 2.1665 19.2323V11.5082C2.16743 10.098 2.85445 8.77651 4.00817 7.96568L11.429 2.75484C12.2631 1.97063 13.5633 1.97063 14.3973 2.75484ZM21.1483 21.3511C21.7131 20.7904 22.032 20.0282 22.0348 19.2323V11.5082C22.0197 10.6441 21.593 9.83916 20.8865 9.34151L13.4657 4.13068L13.3465 4.04401C13.2324 3.92755 13.0762 3.86192 12.9132 3.86192C12.7501 3.86192 12.5939 3.92755 12.4798 4.04401L12.3607 4.13068L4.93984 9.34151C4.2333 9.83916 3.80668 10.6441 3.7915 11.5082V19.2323C3.79437 20.0282 4.11328 20.7904 4.67808 21.3511C5.24288 21.9118 6.0073 22.2252 6.80317 22.2223H19.0232C19.819 22.2252 20.5835 21.9118 21.1483 21.3511Z" fill="black"/>
<path d="M19.489 11.9307L13.4873 16.1232C13.3097 16.3009 13.0657 16.3962 12.8146 16.3859C12.5635 16.3756 12.3282 16.2607 12.1657 16.069L6.33733 11.9307C6.10322 11.7282 5.77439 11.6763 5.48931 11.7969C5.20423 11.9175 5.01243 12.1896 4.99467 12.4986C4.97691 12.8076 5.13628 13.0999 5.40567 13.2523L11.1473 17.3473C11.6181 17.7857 12.2374 18.0295 12.8807 18.0298C13.4856 18.0145 14.0624 17.7707 14.4948 17.3473L20.4207 13.209C20.7613 12.9569 20.8509 12.4852 20.6265 12.1257C20.364 11.7613 19.8579 11.6746 19.489 11.9307Z" fill="black"/>
</svg>
