<svg width="19" height="19" viewBox="0 0 19 19" fill="none" xmlns="http://www.w3.org/2000/svg">
<path d="M13.9734 12.8628L17.1857 16.0743L16.1244 17.1355L12.9129 13.9233C11.718 14.8812 10.2317 15.4022 8.7002 15.4C4.9742 15.4 1.9502 12.376 1.9502 8.65002C1.9502 4.92402 4.9742 1.90002 8.7002 1.90002C12.4262 1.90002 15.4502 4.92402 15.4502 8.65002C15.4524 10.1815 14.9314 11.6678 13.9734 12.8628ZM12.4689 12.3063C13.4206 11.3273 13.9521 10.0153 13.9502 8.65002C13.9502 5.74977 11.6004 3.40002 8.7002 3.40002C5.79995 3.40002 3.4502 5.74977 3.4502 8.65002C3.4502 11.5503 5.79995 13.9 8.7002 13.9C10.0655 13.9019 11.3775 13.3704 12.3564 12.4188L12.4689 12.3063Z" fill="#787878"/>
</svg>
